<svg width="40" height="40" viewBox="0 0 40 40" fill="none" xmlns="http://www.w3.org/2000/svg">
<path d="M1.5 20C1.5 9.78273 9.78273 1.5 20 1.5C30.2173 1.5 38.5 9.78273 38.5 20C38.5 30.2173 30.2173 38.5 20 38.5C9.78273 38.5 1.5 30.2173 1.5 20Z" stroke="white" stroke-width="3"/>
<path d="M30.0607 21.0607C30.6464 20.4749 30.6464 19.5251 30.0607 18.9393L20.5147 9.3934C19.9289 8.80761 18.9792 8.80761 18.3934 9.3934C17.8076 9.97918 17.8076 10.9289 18.3934 11.5147L26.8787 20L18.3934 28.4853C17.8076 29.0711 17.8076 30.0208 18.3934 30.6066C18.9792 31.1924 19.9289 31.1924 20.5147 30.6066L30.0607 21.0607ZM29 18.5L9 18.5L9 21.5L29 21.5L29 18.5Z" fill="white"/>
</svg>
