<svg width="40" height="40" viewBox="0 0 40 40" fill="none" xmlns="http://www.w3.org/2000/svg">
<circle cx="20" cy="20" r="19" stroke="white" stroke-width="2"/>
<path d="M17.4311 30V15.8182H21.946V30H17.4311ZM19.6932 14.1655C19.0592 14.1655 18.5144 13.9562 18.0589 13.5376C17.6035 13.1129 17.3757 12.602 17.3757 12.005C17.3757 11.4141 17.6035 10.9093 18.0589 10.4908C18.5144 10.0661 19.0592 9.85369 19.6932 9.85369C20.3333 9.85369 20.8781 10.0661 21.3274 10.4908C21.7829 10.9093 22.0107 11.4141 22.0107 12.005C22.0107 12.602 21.7829 13.1129 21.3274 13.5376C20.8781 13.9562 20.3333 14.1655 19.6932 14.1655Z" fill="white"/>
</svg>
