<svg width="55" height="56" viewBox="0 0 55 56" fill="none" xmlns="http://www.w3.org/2000/svg">
<g filter="url(#filter0_i_202_102)">
<path d="M0 8C0 3.58172 3.58172 0 8 0H47C51.4183 0 55 3.58172 55 8V48C55 52.4183 51.4183 56 47 56H8C3.58172 56 0 52.4183 0 48V8Z" fill="#7D7D7D"/>
</g>
<path d="M8 0.5H47C51.1421 0.5 54.5 3.85786 54.5 8V48C54.5 52.1421 51.1421 55.5 47 55.5H8C3.85786 55.5 0.5 52.1421 0.5 48V8C0.5 3.85786 3.85786 0.5 8 0.5Z" stroke="black"/>
<line x1="10.5" y1="8" x2="10.5" y2="37" stroke="white"/>
<line x1="11" y1="8.5" x2="16" y2="8.5" stroke="white"/>
<line x1="16.4127" y1="8.71766" x2="29.4127" y2="27.7177" stroke="white"/>
<line x1="29.5" y1="28" x2="29.5" y2="8" stroke="white"/>
<line x1="29" y1="8.5" x2="36" y2="8.5" stroke="white"/>
<line x1="35.5" y1="8" x2="35.5" y2="38" stroke="white"/>
<line x1="36" y1="37.5" x2="29" y2="37.5" stroke="white"/>
<line x1="10" y1="37.5" x2="17" y2="37.5" stroke="white"/>
<line x1="16.5" y1="38" x2="16.5" y2="19" stroke="white"/>
<line x1="16.4127" y1="18.7177" x2="29.4127" y2="37.7177" stroke="white"/>
<path d="M16.1913 8.5325C16.2121 8.52437 16.3611 8.49463 16.2859 8.49463" stroke="white" stroke-linecap="round"/>
<rect x="11" y="9" width="5" height="28" fill="white"/>
<rect x="11.2294" y="11.9604" width="6.14477" height="31.3907" transform="rotate(-34.4555 11.2294 11.9604)" fill="white"/>
<rect x="29" y="8" width="7" height="30" fill="white"/>
<rect x="16.3207" y="19.5417" width="6.2842" height="22.2868" transform="rotate(-34.3059 16.3207 19.5417)" fill="white"/>
<line x1="9.5" y1="7" x2="9.5" y2="39" stroke="black"/>
<line x1="9" y1="7.5" x2="16" y2="7.5" stroke="black"/>
<line x1="9" y1="38.5" x2="18" y2="38.5" stroke="black"/>
<line x1="17.5" y1="38" x2="17.5" y2="21" stroke="black"/>
<line x1="29" y1="38.5" x2="37" y2="38.5" stroke="black"/>
<line x1="36.5" y1="38" x2="36.5" y2="7" stroke="black"/>
<line x1="28" y1="7.5" x2="37" y2="7.5" stroke="black"/>
<line x1="28.5" y1="8" x2="28.5" y2="25" stroke="black"/>
<line x1="16.4085" y1="7.71166" x2="28.4085" y2="24.7117" stroke="black"/>
<line x1="28.588" y1="38.2833" x2="17.588" y2="22.2833" stroke="black"/>
<rect x="16" y="18" width="3" height="4" fill="white"/>
<rect x="27" y="25" width="3" height="2" fill="white"/>
<path d="M28.7681 38.3767C28.7834 38.386 28.7992 38.4039 28.8153 38.4111C28.8216 38.4139 28.8508 38.4209 28.8308 38.4209C28.8127 38.4209 28.7626 38.4283 28.7583 38.4111" stroke="black" stroke-width="0.5" stroke-linecap="round"/>
<path d="M28.9448 38.5583C28.9448 38.5793 28.9476 38.6216 28.9301 38.6366C28.9241 38.6417 28.8857 38.6577 28.8938 38.669C28.903 38.6819 28.9096 38.6927 28.9214 38.7045C28.9282 38.7113 28.9262 38.7241 28.9312 38.729C28.9492 38.747 28.9461 38.7114 28.9448 38.7056" stroke="black" stroke-width="0.5" stroke-linecap="round"/>
<path d="M28.6675 37.9398C28.6722 37.9685 28.6655 38.0895 28.7091 38.0895C28.7518 38.0895 28.7507 38.099 28.7507 38.1395" stroke="black" stroke-width="0.5" stroke-linecap="round"/>
<path d="M29.0334 38.2559H29.1499" stroke="black" stroke-width="0.5" stroke-linecap="round"/>
<path d="M28.3181 38.3224C28.4332 38.4095 28.5377 38.52 28.6675 38.5849C28.6975 38.5999 28.7352 38.6218 28.7673 38.6218C28.801 38.6218 28.8206 38.6534 28.8505 38.6551C28.9171 38.659 28.9622 38.705 29.0335 38.705" stroke="black" stroke-width="0.5" stroke-linecap="round"/>
<path d="M28.3015 38.2725C28.4089 38.4099 28.5766 38.4625 28.6934 38.5793C28.8054 38.6913 28.9463 38.7216 29.1 38.7216" stroke="black" stroke-width="0.5" stroke-linecap="round"/>
<path d="M15.6107 7.32703C15.6587 7.34691 15.7252 7.36923 15.7677 7.40231C15.8051 7.43137 15.8249 7.41537 15.866 7.4271C15.9046 7.43813 16.0034 7.48212 16.0239 7.518C16.0379 7.54246 16.1065 7.61235 16.1065 7.64103C16.1065 7.65951 16.0756 7.67079 16.0735 7.70714C16.073 7.71472 16.0565 7.73367 16.0569 7.7255C16.0607 7.66192 16.1606 7.65512 16.2057 7.64103" stroke="black" stroke-width="0.5" stroke-linecap="round"/>
<path d="M16.2057 7.64105C16.1901 7.65327 16.1323 7.73966 16.1231 7.74021C16.0478 7.74464 16.1322 7.52494 16.1396 7.49231" stroke="black" stroke-width="0.5" stroke-linecap="round"/>
<path d="M15.9247 7.29404C15.9289 7.29486 16.0536 7.32794 16.0367 7.29404C16.0305 7.28158 15.9742 7.26099 16.0156 7.26099C16.0644 7.26099 16.0972 7.27751 16.1478 7.27751C16.1974 7.27751 16.247 7.27751 16.2965 7.27751C16.3665 7.27751 16.3249 7.33548 16.3388 7.38402C16.344 7.40228 16.3758 7.38697 16.3874 7.40146C16.3973 7.41383 16.4118 7.42924 16.4242 7.43911C16.4509 7.46051 16.4797 7.47808 16.5068 7.50521C16.5262 7.52467 16.5136 7.54138 16.5206 7.56581C16.5235 7.57623 16.5557 7.58292 16.5656 7.59519C16.5791 7.61219 16.6072 7.66744 16.6188 7.69068" stroke="black" stroke-width="0.5" stroke-linecap="round"/>
<path d="M16.1726 7.32703C16.3141 7.32703 16.4935 7.42341 16.5527 7.54187" stroke="black" stroke-width="0.5" stroke-linecap="round"/>
<path d="M39.1621 32.2422C41.1387 32.8438 42.6139 33.8249 43.5879 35.1855C44.5762 36.5319 45.0703 38.0859 45.0703 39.8477C45.0703 41.6094 44.6263 43.2279 43.7383 44.7031C42.8503 46.1784 41.5898 47.2669 39.957 47.9688C38.3242 48.6562 36.1113 49 33.3184 49H21.2656V17.5039H33.082C36.9062 17.5039 39.599 18.3346 41.1602 19.9961C42.7357 21.6576 43.5234 23.5052 43.5234 25.5391C43.5234 26.9141 43.1582 28.1888 42.4277 29.3633C41.7116 30.5234 40.623 31.4831 39.1621 32.2422ZM25.4336 30.6953H32.2656C33.6693 30.6953 34.8438 30.6165 35.7891 30.459C36.7487 30.3014 37.5938 29.8861 38.3242 29.2129C39.0547 28.5397 39.4199 27.4941 39.4199 26.0762C39.4199 24.5866 39.0475 23.4909 38.3027 22.7891C37.5723 22.0729 36.6914 21.6361 35.6602 21.4785C34.6432 21.321 33.3327 21.2422 31.7285 21.2422H25.4336V30.6953ZM25.4336 45.2617H33.2754C36.0827 45.2617 38.0306 44.7819 39.1191 43.8223C40.2077 42.8626 40.752 41.5378 40.752 39.8477C40.752 38.1432 40.1719 36.8184 39.0117 35.873C37.8516 34.9134 35.7604 34.4336 32.7383 34.4336H25.4336V45.2617Z" fill="black"/>
<path d="M39.1621 32.2422L38.701 31.3548L36.5258 32.4851L38.8709 33.1989L39.1621 32.2422ZM43.5879 35.1855L42.7747 35.7676L42.7818 35.7773L43.5879 35.1855ZM39.957 47.9688L40.3451 48.8904L40.3519 48.8875L39.957 47.9688ZM21.2656 49H20.2656V50H21.2656V49ZM21.2656 17.5039V16.5039H20.2656V17.5039H21.2656ZM41.1602 19.9961L40.4314 20.6809L40.4345 20.6842L41.1602 19.9961ZM42.4277 29.3633L41.5786 28.8351L41.5768 28.838L42.4277 29.3633ZM25.4336 30.6953H24.4336V31.6953H25.4336V30.6953ZM35.7891 30.459L35.6271 29.4722L35.6247 29.4726L35.7891 30.459ZM38.3027 22.7891L37.6027 23.5031L37.6097 23.5101L37.6169 23.5169L38.3027 22.7891ZM35.6602 21.4785L35.5071 22.4667L35.5091 22.467L35.6602 21.4785ZM25.4336 21.2422V20.2422H24.4336V21.2422H25.4336ZM25.4336 45.2617H24.4336V46.2617H25.4336V45.2617ZM39.1191 43.8223L38.4578 43.0721L39.1191 43.8223ZM39.0117 35.873L38.3743 36.6436L38.38 36.6483L39.0117 35.873ZM25.4336 34.4336V33.4336H24.4336V34.4336H25.4336ZM38.8709 33.1989C40.6875 33.7517 41.9565 34.6244 42.7747 35.7676L44.401 34.6035C43.2714 33.0253 41.5898 31.9358 39.4533 31.2855L38.8709 33.1989ZM42.7818 35.7773C43.6369 36.9423 44.0703 38.2864 44.0703 39.8477H46.0703C46.0703 37.8855 45.5154 36.1215 44.394 34.5938L42.7818 35.7773ZM44.0703 39.8477C44.0703 41.4321 43.6736 42.8716 42.8815 44.1874L44.595 45.2188C45.579 43.5841 46.0703 41.7867 46.0703 39.8477H44.0703ZM42.8815 44.1874C42.1051 45.4772 41.0092 46.428 39.5621 47.05L40.3519 48.8875C42.1705 48.1058 43.5954 46.8795 44.595 45.2188L42.8815 44.1874ZM39.569 47.0471C38.1093 47.6617 36.0463 48 33.3184 48V50C36.1763 50 38.5392 49.6508 40.3451 48.8904L39.569 47.0471ZM33.3184 48H21.2656V50H33.3184V48ZM22.2656 49V17.5039H20.2656V49H22.2656ZM21.2656 18.5039H33.082V16.5039H21.2656V18.5039ZM33.082 18.5039C36.8082 18.5039 39.1538 19.3212 40.4314 20.6809L41.8889 19.3113C40.0441 17.3481 37.0043 16.5039 33.082 16.5039V18.5039ZM40.4345 20.6842C41.8579 22.1852 42.5234 23.7941 42.5234 25.5391H44.5234C44.5234 23.2163 43.6135 21.1299 41.8858 19.308L40.4345 20.6842ZM42.5234 25.5391C42.5234 26.7262 42.2111 27.8182 41.5786 28.8351L43.2769 29.8914C44.1053 28.5594 44.5234 27.1019 44.5234 25.5391H42.5234ZM41.5768 28.838C40.9735 29.8154 40.035 30.6617 38.701 31.3548L39.6232 33.1295C41.2111 32.3045 42.4497 31.2315 43.2787 29.8886L41.5768 28.838ZM25.4336 31.6953H32.2656V29.6953H25.4336V31.6953ZM32.2656 31.6953C33.7015 31.6953 34.9352 31.6151 35.9535 31.4454L35.6247 29.4726C34.7523 29.618 33.637 29.6953 32.2656 29.6953V31.6953ZM35.9511 31.4458C37.1078 31.2559 38.1311 30.7508 39.0019 29.9482L37.6465 28.4775C37.0564 29.0213 36.3896 29.347 35.6271 29.4722L35.9511 31.4458ZM39.0019 29.9482C40.013 29.0165 40.4199 27.6516 40.4199 26.0762H38.4199C38.4199 27.3366 38.0964 28.0629 37.6465 28.4775L39.0019 29.9482ZM40.4199 26.0762C40.4199 24.4378 40.0104 23.0242 38.9885 22.0613L37.6169 23.5169C38.0846 23.9576 38.4199 24.7354 38.4199 26.0762H40.4199ZM39.0028 22.075C38.1195 21.209 37.0453 20.6785 35.8112 20.49L35.5091 22.467C36.3375 22.5936 37.0251 22.9369 37.6027 23.5031L39.0028 22.075ZM35.8133 20.4903C34.7259 20.3218 33.359 20.2422 31.7285 20.2422V22.2422C33.3064 22.2422 34.5606 22.3201 35.5071 22.4667L35.8133 20.4903ZM31.7285 20.2422H25.4336V22.2422H31.7285V20.2422ZM24.4336 21.2422V30.6953H26.4336V21.2422H24.4336ZM25.4336 46.2617H33.2754V44.2617H25.4336V46.2617ZM33.2754 46.2617C36.1289 46.2617 38.4018 45.7878 39.7804 44.5724L38.4578 43.0721C37.6594 43.776 36.0365 44.2617 33.2754 44.2617V46.2617ZM39.7804 44.5724C41.1206 43.391 41.752 41.7727 41.752 39.8477H39.752C39.752 41.3028 39.2948 42.3343 38.4578 43.0721L39.7804 44.5724ZM41.752 39.8477C41.752 37.8896 41.0708 36.2609 39.6434 35.0978L38.38 36.6483C39.273 37.3759 39.752 38.3969 39.752 39.8477H41.752ZM39.6491 35.1025C38.2007 33.9045 35.7952 33.4336 32.7383 33.4336V35.4336C35.7257 35.4336 37.5024 35.9224 38.3743 36.6436L39.6491 35.1025ZM32.7383 33.4336H25.4336V35.4336H32.7383V33.4336ZM24.4336 34.4336V45.2617H26.4336V34.4336H24.4336Z" fill="#A61111"/>
<line x1="28.5" y1="12" x2="28.5" y2="25" stroke="black"/>
<line x1="36.5" y1="10" x2="36.5" y2="25" stroke="black"/>
<rect x="29" y="9" width="7" height="16" fill="white"/>
<defs>
<filter id="filter0_i_202_102" x="0" y="0" width="65" height="66" filterUnits="userSpaceOnUse" color-interpolation-filters="sRGB">
<feFlood flood-opacity="0" result="BackgroundImageFix"/>
<feBlend mode="normal" in="SourceGraphic" in2="BackgroundImageFix" result="shape"/>
<feColorMatrix in="SourceAlpha" type="matrix" values="0 0 0 0 0 0 0 0 0 0 0 0 0 0 0 0 0 0 127 0" result="hardAlpha"/>
<feOffset dx="10" dy="10"/>
<feGaussianBlur stdDeviation="15"/>
<feComposite in2="hardAlpha" operator="arithmetic" k2="-1" k3="1"/>
<feColorMatrix type="matrix" values="0 0 0 0 0 0 0 0 0 0 0 0 0 0 0 0 0 0 1 0"/>
<feBlend mode="normal" in2="shape" result="effect1_innerShadow_202_102"/>
</filter>
</defs>
</svg>
