<svg width="40" height="40" viewBox="0 0 40 40" fill="none" xmlns="http://www.w3.org/2000/svg">
<path d="M8 17C7.4 17 7 17.4 7 18V22C7 22.6 7.4 23 8 23C8.6 23 9 22.6 9 22V18C9 17.4 8.6 17 8 17Z" fill="white"/>
<path d="M12 15C11.4 15 11 15.4 11 16V24C11 24.6 11.4 25 12 25C12.6 25 13 24.6 13 24V16C13 15.4 12.6 15 12 15Z" fill="white"/>
<path d="M16 10C15.4 10 15 10.4 15 11V29C15 29.6 15.4 30 16 30C16.6 30 17 29.6 17 29V11C17 10.4 16.6 10 16 10Z" fill="white"/>
<path d="M20 17C19.4 17 19 17.4 19 18V22C19 22.6 19.4 23 20 23C20.6 23 21 22.6 21 22V18C21 17.4 20.6 17 20 17Z" fill="white"/>
<path d="M24 13C23.4 13 23 13.4 23 14V26C23 26.6 23.4 27 24 27C24.6 27 25 26.6 25 26V14C25 13.4 24.6 13 24 13Z" fill="white"/>
<path d="M28 10C27.4 10 27 10.4 27 11V29C27 29.6 27.4 30 28 30C28.6 30 29 29.6 29 29V11C29 10.4 28.6 10 28 10Z" fill="white"/>
<path d="M32 17C31.4 17 31 17.4 31 18V22C31 22.6 31.4 23 32 23C32.6 23 33 22.6 33 22V18C33 17.4 32.6 17 32 17Z" fill="white"/>
<circle cx="20" cy="20" r="18.5" stroke="white" stroke-width="3"/>
</svg>
