<svg width="40" height="40" viewBox="0 0 40 40" fill="none" xmlns="http://www.w3.org/2000/svg">
<path d="M38.5 20C38.5 30.2173 30.2173 38.5 20 38.5C9.78273 38.5 1.5 30.2173 1.5 20C1.5 9.78273 9.78273 1.5 20 1.5C30.2173 1.5 38.5 9.78273 38.5 20Z" stroke="white" stroke-width="3"/>
<path d="M9.93934 18.9393C9.35355 19.5251 9.35355 20.4749 9.93934 21.0607L19.4853 30.6066C20.0711 31.1924 21.0208 31.1924 21.6066 30.6066C22.1924 30.0208 22.1924 29.0711 21.6066 28.4853L13.1213 20L21.6066 11.5147C22.1924 10.9289 22.1924 9.97918 21.6066 9.3934C21.0208 8.80761 20.0711 8.80761 19.4853 9.3934L9.93934 18.9393ZM11 21.5H31V18.5H11V21.5Z" fill="white"/>
</svg>
