<svg width="40" height="40" viewBox="0 0 40 40" fill="none" xmlns="http://www.w3.org/2000/svg">
<circle cx="20" cy="20" r="19" stroke="white" stroke-width="2"/>
<path d="M31 21.375V20C31 19.2419 30.3831 18.625 29.625 18.625H26.1137C26.1751 18.5865 26.2315 18.5416 26.2824 18.4907C26.5459 18.2276 26.6458 17.8587 26.5565 17.4801C26.4002 16.8196 25.7173 16.2284 24.7286 15.8984C24.1154 15.6944 24.1154 15.6944 23.1465 14.9405C22.7931 14.665 22.2999 14.2823 21.6069 13.7561C22.8155 12.9916 24.3235 12.0163 26.2132 10.7563C26.3401 10.6711 26.4167 10.5281 26.4167 10.375C26.4167 9.61692 25.7998 9 25.0417 9C24.9463 9 24.8528 9.02933 24.7754 9.08525C22.7353 10.5423 21.188 11.6721 20 12.5525C18.8125 11.6721 17.2647 10.5423 15.2246 9.08525C15.1472 9.02933 15.0537 9 14.9583 9C14.2003 9 13.5833 9.61692 13.5833 10.375C13.5833 10.5281 13.6599 10.6711 13.7873 10.7563C15.6775 12.0163 17.1849 12.9916 18.3935 13.7561C17.7001 14.2823 17.2074 14.665 16.854 14.9405C15.8846 15.6944 15.8846 15.6944 15.2714 15.8984C14.2827 16.2284 13.5994 16.8196 13.4435 17.4801C13.3542 17.8587 13.4541 18.2276 13.7176 18.4907C13.7685 18.5416 13.8253 18.5865 13.8863 18.625H10.375C9.61692 18.625 9 19.2419 9 20V21.375H9.91667V28.25H9V29.625C9 30.3831 9.61692 31 10.375 31H29.625C30.3831 31 31 30.3831 31 29.625V28.25H30.0833V21.375H31ZM24.4385 16.7683C25.3025 17.0557 25.615 17.4838 25.6645 17.6909C25.6879 17.7895 25.6531 17.8238 25.6347 17.8426C25.6219 17.8555 25.5706 17.8802 25.472 17.8802C25.0751 17.8802 24.3895 17.4998 24.1044 16.6528C24.1997 16.6876 24.3083 16.7247 24.4385 16.7683ZM25.1654 9.93362C25.2887 9.96754 25.3905 10.0528 25.4487 10.1637C23.5296 11.4402 22.0199 12.4132 20.8236 13.1663C20.8048 13.1525 20.787 13.1383 20.7682 13.1245C21.8925 12.2931 23.3234 11.25 25.1654 9.93362ZM14.5513 10.1637C14.6095 10.0528 14.7118 9.96754 14.835 9.93362C16.6771 11.25 18.1075 12.2927 19.2323 13.1245C19.2135 13.1383 19.1952 13.1525 19.1764 13.1663C17.9806 12.4132 16.4704 11.4402 14.5513 10.1637ZM14.3359 17.6909C14.3845 17.4838 14.698 17.0557 15.5615 16.7683C15.6912 16.7247 15.7998 16.6876 15.8961 16.6528C15.611 17.4993 14.9253 17.8802 14.5284 17.8802C14.4294 17.8802 14.3785 17.8555 14.3657 17.8426C14.3474 17.8238 14.3125 17.7895 14.3359 17.6909ZM16.7678 16.937C16.876 16.6143 16.876 16.6143 17.8898 16.0208C18.3564 15.7476 19.0343 15.3502 20 14.7576C20.9653 15.3502 21.6436 15.7476 22.1102 16.0208C23.1245 16.6143 23.1245 16.6143 23.2322 16.9365C23.5191 17.7977 24.1154 18.3624 24.7236 18.625H15.2764C15.8851 18.3628 16.4809 17.7977 16.7678 16.937ZM30.0833 29.625C30.0833 29.8775 29.878 30.0833 29.625 30.0833H10.375C10.1225 30.0833 9.91667 29.8775 9.91667 29.625V29.1667H30.0833V29.625ZM15.875 22.2917V21.375H24.125V22.2917H23.2083V27.3333H24.125V28.25H15.875V27.3333H16.7917V22.2917H15.875ZM25.0417 22.2917V21.375H29.1667V28.25H25.0417V27.3333H25.9583V22.2917H25.0417ZM25.0417 26.4167H24.125V23.2083H25.0417V26.4167ZM15.875 26.4167H14.9583V23.2083H15.875V26.4167ZM14.9583 22.2917H14.0417V27.3333H14.9583V28.25H10.8333V21.375H14.9583V22.2917ZM9.91667 20.4583V20C9.91667 19.7475 10.1225 19.5417 10.375 19.5417H29.625C29.878 19.5417 30.0833 19.7475 30.0833 20V20.4583H9.91667Z" fill="white"/>
</svg>
