<svg width="40" height="40" viewBox="0 0 40 40" fill="none" xmlns="http://www.w3.org/2000/svg">
<path fill-rule="evenodd" clip-rule="evenodd" d="M29.9819 12.7938C29.9819 13.7093 29.2279 14.4582 28.3062 14.4582H24.7572C25.0062 13.9627 25.1465 13.4037 25.1465 12.8122C25.1465 12.206 24.9993 11.634 24.7386 11.1295H28.3062C29.2279 11.1295 29.9819 11.8784 29.9819 12.7938ZM24.2623 27.1878C24.2623 28.741 22.9945 30 21.4308 30C19.8671 30 18.5995 28.741 18.5995 27.1878C18.5995 25.6348 19.8671 24.3757 21.4308 24.3757C22.9945 24.3757 24.2623 25.6347 24.2623 27.1878ZM29.9981 27.1693C29.9981 28.0848 29.2439 28.8337 28.3223 28.8337H24.7572C25.0062 28.3382 25.1465 27.7792 25.1465 27.1878C25.1465 26.5817 24.9993 26.0096 24.7386 25.5052H28.3223C29.2441 25.5052 29.9981 26.2541 29.9981 27.1693ZM18.1041 28.8337H10.6775C9.75588 28.8337 9.00188 28.0848 9.00188 27.1693C9.00188 26.2539 9.75588 25.505 10.6775 25.505H18.1227C17.8621 26.0095 17.7148 26.5815 17.7148 27.1877C17.7148 27.7792 17.8551 28.3382 18.1041 28.8337ZM13.8409 19.9669C13.8409 21.5199 15.1086 22.7791 16.6723 22.7791C18.2359 22.7791 19.5036 21.5199 19.5036 19.9669C19.5036 18.4137 18.2359 17.1546 16.6723 17.1546C15.1086 17.1544 13.8409 18.4136 13.8409 19.9669ZM9 19.9484C9 20.8638 9.75435 21.6127 10.6757 21.6127H13.3545C13.1055 21.1171 12.9652 20.5656 12.9652 19.9669C12.9652 19.368 13.1123 18.7887 13.3731 18.2841H10.6757C9.754 18.2841 9 19.033 9 19.9484ZM20.0074 21.6127H28.3243C29.2458 21.6127 30 20.8638 30 19.9484C30 19.0328 29.246 18.2839 28.3243 18.2839H19.9889C20.2496 18.7885 20.3969 19.3679 20.3969 19.9667C20.3969 20.5656 20.2564 21.1171 20.0074 21.6127ZM24.2623 12.8122C24.2623 14.3653 22.9945 15.6243 21.4308 15.6243C19.8671 15.6243 18.5994 14.3655 18.5994 12.8122C18.5994 11.259 19.8669 10 21.4306 10C22.9944 10 24.2623 11.259 24.2623 12.8122ZM18.1041 14.4582H10.6839C9.76221 14.4582 9.0082 13.7091 9.0082 12.7938C9.0082 11.8784 9.76221 11.1295 10.6839 11.1295H18.1227C17.8621 11.634 17.7148 12.206 17.7148 12.8122C17.7148 13.4037 17.8551 13.9627 18.1041 14.4582Z" fill="white"/>
<circle cx="20" cy="20" r="19" stroke="white" stroke-width="2"/>
</svg>
