<svg width="40" height="40" viewBox="0 0 40 40" fill="none" xmlns="http://www.w3.org/2000/svg">
<path d="M13.0938 18.8C12.1978 18.8 11.4688 19.5627 11.4688 20.5C11.4688 21.4373 12.1978 22.2 13.0938 22.2C13.9897 22.2 14.7188 21.4373 14.7188 20.5C14.7188 19.5627 13.9897 18.8 13.0938 18.8ZM13.0938 21.0667C12.7948 21.0667 12.5521 20.8128 12.5521 20.5C12.5521 20.1872 12.7948 19.9333 13.0938 19.9333C13.3928 19.9333 13.6354 20.1872 13.6354 20.5C13.6354 20.8128 13.3928 21.0667 13.0938 21.0667ZM26.9062 18.8C26.0103 18.8 25.2812 19.5627 25.2812 20.5C25.2812 21.4373 26.0103 22.2 26.9062 22.2C27.8022 22.2 28.5312 21.4373 28.5312 20.5C28.5312 19.5627 27.8022 18.8 26.9062 18.8ZM26.9062 21.0667C26.6073 21.0667 26.3646 20.8128 26.3646 20.5C26.3646 20.1872 26.6073 19.9333 26.9062 19.9333C27.2052 19.9333 27.4479 20.1872 27.4479 20.5C27.4479 20.8128 27.2052 21.0667 26.9062 21.0667ZM15.6667 18.8V22.2H24.3333V18.8H15.6667ZM21.6721 19.9333C21.6423 20.0977 21.625 20.2847 21.625 20.5C21.625 20.7153 21.6423 20.9023 21.6721 21.0667H18.8695C18.8993 20.9023 18.9167 20.7153 18.9167 20.5C18.9167 20.2847 18.8993 20.0977 18.8695 19.9333H21.6721ZM16.75 19.9333H17.738C17.7694 19.9872 17.8333 20.1402 17.8333 20.5C17.8333 20.8598 17.7694 21.0128 17.738 21.0667H16.75V19.9333ZM23.25 21.0667H22.8037C22.7723 21.0128 22.7083 20.8598 22.7083 20.5C22.7083 20.1402 22.7723 19.9872 22.8037 19.9333H23.25V21.0667ZM9.70833 14.2667C9.70833 14.58 9.46621 14.8333 9.16667 14.8333C8.86713 14.8333 8.625 14.58 8.625 14.2667C8.625 13.9533 8.86713 13.7 9.16667 13.7C9.46621 13.7 9.70833 13.9533 9.70833 14.2667ZM31.375 14.2667C31.375 14.58 31.1329 14.8333 30.8333 14.8333C30.5338 14.8333 30.2917 14.58 30.2917 14.2667C30.2917 13.9533 30.5338 13.7 30.8333 13.7C31.1329 13.7 31.375 13.9533 31.375 14.2667ZM9.70833 26.7333C9.70833 27.0467 9.46621 27.3 9.16667 27.3C8.86713 27.3 8.625 27.0467 8.625 26.7333C8.625 26.42 8.86713 26.1667 9.16667 26.1667C9.46621 26.1667 9.70833 26.42 9.70833 26.7333ZM31.375 26.7333C31.375 27.0467 31.1329 27.3 30.8333 27.3C30.5338 27.3 30.2917 27.0467 30.2917 26.7333C30.2917 26.42 30.5338 26.1667 30.8333 26.1667C31.1329 26.1667 31.375 26.42 31.375 26.7333ZM16.75 26.1667C16.75 26.48 16.5079 26.7333 16.2083 26.7333H15.6667C15.3671 26.7333 15.125 26.48 15.125 26.1667C15.125 25.8533 15.3671 25.6 15.6667 25.6H16.2083C16.5079 25.6 16.75 25.8533 16.75 26.1667ZM24.875 26.1667C24.875 26.48 24.6329 26.7333 24.3333 26.7333H23.7917C23.4921 26.7333 23.25 26.48 23.25 26.1667C23.25 25.8533 23.4921 25.6 23.7917 25.6H24.3333C24.6329 25.6 24.875 25.8533 24.875 26.1667ZM31.375 12H8.625C7.72908 12 7 12.7627 7 13.7V27.3C7 28.2373 7.72908 29 8.625 29H31.375C32.2709 29 33 28.2373 33 27.3V13.7C33 12.7627 32.2709 12 31.375 12ZM13.2384 27.8667L14.3992 25.0333H25.6019L26.7627 27.8667H13.2384ZM31.9167 27.3C31.9167 27.6128 31.674 27.8667 31.375 27.8667H27.9403L26.3153 23.9H13.6847L12.0597 27.8667H8.625C8.326 27.8667 8.08333 27.6128 8.08333 27.3V13.7C8.08333 13.3872 8.326 13.1333 8.625 13.1333H31.375C31.674 13.1333 31.9167 13.3872 31.9167 13.7V27.3Z" fill="white"/>
<circle cx="20" cy="20" r="19" stroke="white" stroke-width="2"/>
</svg>
